<svg width="30" height="36" viewBox="0 0 30 36" fill="none" xmlns="http://www.w3.org/2000/svg">
<path d="M30 27.9999H25V22.9999H22.5V27.9999H17.5V30.4999H22.5V35.4999H25V30.4999H30V27.9999Z"/>
<path d="M12.5 32.9999H2.5V2.99994H12.5V10.4999C12.5019 11.1624 12.7659 11.7972 13.2343 12.2656C13.7028 12.734 14.3375 12.998 15 12.9999H22.5V17.9999H25V10.4999C25.0045 10.3357 24.9733 10.1723 24.9085 10.0213C24.8438 9.87022 24.7471 9.735 24.625 9.62494L15.875 0.874941C15.765 0.752852 15.6297 0.656096 15.4787 0.591353C15.3276 0.52661 15.1643 0.495421 15 0.499941H2.5C1.83755 0.501854 1.20277 0.765861 0.734346 1.23429C0.265919 1.70271 0.0019128 2.33749 0 2.99994V32.9999C0.0019128 33.6624 0.265919 34.2972 0.734346 34.7656C1.20277 35.234 1.83755 35.498 2.5 35.4999H12.5V32.9999ZM15 3.49994L22 10.4999H15V3.49994Z"/>
</svg>