<svg width="14" height="14" viewBox="0 0 14 14" fill="none" xmlns="http://www.w3.org/2000/svg">
<path d="M7.00012 0.500111C6.14505 0.4948 5.29743 0.659301 4.50641 0.984076C3.7154 1.30885 2.99673 1.78744 2.39209 2.39208C1.78745 2.99672 1.30886 3.71538 0.984089 4.5064C0.659315 5.29741 0.494813 6.14504 0.500125 7.00011V7.50011C0.500125 9.22402 1.18494 10.8773 2.40393 12.0963C3.62292 13.3153 5.27622 14.0001 7.00012 14.0001H10.5001V13.0001H7.00012C5.54143 13.0001 4.14249 12.4206 3.11104 11.3892C2.07959 10.3577 1.50012 8.9588 1.50012 7.50011V7.00011C1.49615 6.27673 1.63569 5.55974 1.91068 4.89065C2.18568 4.22157 2.59065 3.61367 3.10217 3.10215C3.61368 2.59064 4.22158 2.18566 4.89067 1.91067C5.55975 1.63568 6.27674 1.49613 7.00012 1.50011C7.72917 1.475 8.45558 1.60008 9.13423 1.8676C9.81289 2.13511 10.4293 2.53933 10.9451 3.05515C11.4609 3.57097 11.8651 4.18735 12.1326 4.866C12.4002 5.54465 12.5252 6.27107 12.5001 7.00011C12.5001 8.79511 11.8001 9.50011 10.6701 9.50011C9.88013 9.50011 9.50012 8.85511 9.50012 8.00011V4.00011H8.50012V4.97011C8.32578 4.66318 8.0702 4.41026 7.76147 4.23914C7.45273 4.06801 7.1028 3.9853 6.75012 4.00011C6.02515 3.99745 5.32867 4.28221 4.81323 4.79202C4.29779 5.30184 4.00541 5.99515 4.00012 6.72011V7.78011C4.00541 8.50507 4.29779 9.19838 4.81323 9.7082C5.32867 10.218 6.02515 10.5028 6.75012 10.5001C7.16709 10.5123 7.57855 10.4024 7.93387 10.1839C8.2892 9.96536 8.57292 9.64775 8.75012 9.27011C8.92761 9.63803 9.20511 9.94853 9.55086 10.1661C9.89661 10.3836 10.2966 10.4994 10.7051 10.5001C12.2401 10.5001 13.5001 9.50011 13.5001 7.00011C13.5192 6.14128 13.3642 5.28748 13.0443 4.49022C12.7244 3.69296 12.2463 2.96877 11.6389 2.36134C11.0315 1.7539 10.3073 1.27582 9.51001 0.955934C8.71275 0.636048 7.85895 0.480989 7.00012 0.500111ZM8.50012 7.78011C8.50012 8.24424 8.31575 8.68936 7.98756 9.01755C7.65937 9.34574 7.21425 9.53011 6.75012 9.53011C6.286 9.53011 5.84088 9.34574 5.51269 9.01755C5.1845 8.68936 5.00012 8.24424 5.00012 7.78011V6.72011C5.00012 6.25598 5.1845 5.81086 5.51269 5.48267C5.84088 5.15449 6.286 4.97011 6.75012 4.97011C7.21425 4.97011 7.65937 5.15449 7.98756 5.48267C8.31575 5.81086 8.50012 6.25598 8.50012 6.72011V7.78011Z"/>
</svg>