<svg width="36" height="36" viewBox="0 0 36 36" fill="none" xmlns="http://www.w3.org/2000/svg">
<path d="M18 21.75C16.5562 21.7512 15.1345 21.3946 13.8622 20.7122C12.5898 20.0297 11.5064 19.0426 10.7087 17.8391L12.7913 16.4549C13.3615 17.3143 14.1355 18.0194 15.0443 18.5071C15.9532 18.9948 16.9686 19.25 18 19.25C19.0314 19.25 20.0468 18.9948 20.9557 18.5071C21.8645 18.0194 22.6385 17.3143 23.2087 16.4549L25.2913 17.8391C24.4936 19.0426 23.4102 20.0297 22.1378 20.7122C20.8655 21.3946 19.4438 21.7512 18 21.75Z"/>
<path d="M23 8C22.5055 8 22.0222 8.14662 21.6111 8.42133C21.2 8.69603 20.8795 9.08648 20.6903 9.54329C20.5011 10.0001 20.4516 10.5028 20.548 10.9877C20.6445 11.4727 20.8826 11.9181 21.2322 12.2678C21.5819 12.6174 22.0273 12.8555 22.5123 12.952C22.9972 13.0484 23.4999 12.9989 23.9567 12.8097C24.4135 12.6205 24.804 12.3 25.0787 11.8889C25.3534 11.4778 25.5 10.9945 25.5 10.5C25.5032 10.1708 25.4408 9.84425 25.3163 9.53947C25.1918 9.23469 25.0078 8.95781 24.775 8.72501C24.5422 8.49222 24.2653 8.30819 23.9605 8.1837C23.6558 8.05921 23.3292 7.99676 23 8Z"/>
<path d="M13 8C12.5055 8 12.0222 8.14662 11.6111 8.42133C11.2 8.69603 10.8795 9.08648 10.6903 9.54329C10.5011 10.0001 10.4516 10.5028 10.548 10.9877C10.6445 11.4727 10.8826 11.9181 11.2322 12.2678C11.5819 12.6174 12.0273 12.8555 12.5123 12.952C12.9972 13.0484 13.4999 12.9989 13.9567 12.8097C14.4135 12.6205 14.804 12.3 15.0787 11.8889C15.3534 11.4778 15.5 10.9945 15.5 10.5C15.5032 10.1708 15.4408 9.84425 15.3163 9.53947C15.1918 9.23469 15.0078 8.95781 14.775 8.72501C14.5422 8.49222 14.2653 8.30819 13.9605 8.1837C13.6558 8.05921 13.3292 7.99676 13 8Z"/>
<path d="M20.1698 35.5L18 34.25L23 25.5H30.5C30.8285 25.5006 31.1538 25.4363 31.4574 25.3108C31.7609 25.1854 32.0368 25.0013 32.269 24.769C32.5013 24.5368 32.6854 24.2609 32.8108 23.9574C32.9363 23.6538 33.0006 23.3285 33 23V5.5C33.0006 5.17154 32.9363 4.8462 32.8108 4.54263C32.6854 4.23906 32.5013 3.96324 32.269 3.73099C32.0368 3.49873 31.7609 3.3146 31.4574 3.18916C31.1538 3.06372 30.8285 2.99944 30.5 3H5.5C5.17154 2.99944 4.8462 3.06372 4.54263 3.18916C4.23906 3.3146 3.96324 3.49873 3.73099 3.73099C3.49873 3.96324 3.3146 4.23906 3.18916 4.54263C3.06372 4.8462 2.99944 5.17154 3 5.5V23C2.99944 23.3285 3.06372 23.6538 3.18916 23.9574C3.3146 24.2609 3.49873 24.5368 3.73099 24.769C3.96324 25.0013 4.23906 25.1854 4.54263 25.3108C4.8462 25.4363 5.17154 25.5006 5.5 25.5H16.75V28H5.5C4.84336 28.0001 4.19313 27.8709 3.58645 27.6196C2.97977 27.3684 2.42853 27.0001 1.96421 26.5358C1.49989 26.0715 1.1316 25.5202 0.880368 24.9136C0.629136 24.3069 0.499885 23.6566 0.5 23V5.5C0.499803 4.84334 0.628998 4.19307 0.880201 3.58635C1.1314 2.97963 1.49969 2.42836 1.96403 1.96403C2.42836 1.49969 2.97963 1.1314 3.58635 0.880201C4.19307 0.628998 4.84334 0.499803 5.5 0.5H30.5C31.1567 0.499803 31.8069 0.628998 32.4137 0.880201C33.0204 1.1314 33.5716 1.49969 34.036 1.96403C34.5003 2.42836 34.8686 2.97963 35.1198 3.58635C35.371 4.19307 35.5002 4.84334 35.5 5.5V23C35.5001 23.6566 35.3709 24.3069 35.1196 24.9136C34.8684 25.5202 34.5001 26.0715 34.0358 26.5358C33.5715 27.0001 33.0202 27.3684 32.4136 27.6196C31.8069 27.8709 31.1566 28.0001 30.5 28H24.4557L20.1698 35.5Z"/>
</svg>