<svg width="14" height="14" viewBox="0 0 14 14" fill="none" xmlns="http://www.w3.org/2000/svg">
    <path d="M7 9C6.60444 9 6.21776 8.88271 5.88886 8.66294C5.55996 8.44318 5.30362 8.13082 5.15224 7.76537C5.00087 7.39992 4.96126 6.99778 5.03843 6.60982C5.1156 6.22186 5.30608 5.86549 5.58579 5.58579C5.86549 5.30608 6.22186 5.1156 6.60982 5.03843C6.99778 4.96126 7.39992 5.00087 7.76537 5.15224C8.13082 5.30362 8.44318 5.55996 8.66294 5.88886C8.88271 6.21776 9 6.60444 9 7C8.99941 7.53025 8.7885 8.03862 8.41356 8.41356C8.03862 8.7885 7.53025 8.99941 7 9ZM7 6C6.80222 6 6.60888 6.05865 6.44443 6.16853C6.27998 6.27842 6.15181 6.43459 6.07612 6.61732C6.00044 6.80005 5.98063 7.00111 6.01922 7.19509C6.0578 7.38907 6.15304 7.56726 6.2929 7.70711C6.43275 7.84696 6.61093 7.9422 6.80491 7.98079C6.99889 8.01937 7.19996 7.99957 7.38269 7.92388C7.56541 7.8482 7.72159 7.72002 7.83147 7.55557C7.94135 7.39112 8 7.19778 8 7C7.99973 6.73487 7.89428 6.48068 7.7068 6.2932C7.51933 6.10573 7.26513 6.00028 7 6Z"/>
    <path d="M7 11C5.86403 10.9697 4.76753 10.5769 3.87067 9.87906C2.9738 9.18122 2.32359 8.21488 2.015 7.1212L1.9846 7L2.0149 6.8788C2.32349 5.78511 2.97372 4.81876 3.87061 4.12092C4.76749 3.42307 5.86402 3.03031 7 3C8.13597 3.03033 9.23248 3.4231 10.1293 4.12095C11.0262 4.81879 11.6764 5.78513 11.985 6.8788L12.0154 7L11.9851 7.1212C11.6765 8.21489 11.0263 9.18125 10.1294 9.87909C9.23252 10.5769 8.13599 10.9697 7 11ZM3.0176 7C3.28725 7.85194 3.8157 8.59868 4.52944 9.13635C5.24318 9.67402 6.10673 9.9759 7 10C7.89327 9.9759 8.75683 9.67402 9.47057 9.13635C10.1843 8.59868 10.7128 7.85194 10.9824 7C10.7128 6.14806 10.1843 5.40133 9.47057 4.86366C8.75683 4.32599 7.89327 4.02411 7 4C6.10673 4.02411 5.24318 4.32599 4.52944 4.86366C3.8157 5.40133 3.28725 6.14806 3.0176 7Z"/>
    <path d="M7 14C5.61553 14 4.26216 13.5895 3.11101 12.8203C1.95987 12.0511 1.06266 10.9579 0.532846 9.67879C0.00303298 8.3997 -0.13559 6.99224 0.134506 5.63437C0.404603 4.2765 1.07129 3.02922 2.05026 2.05026C3.02922 1.07129 4.2765 0.404603 5.63437 0.134506C6.99224 -0.13559 8.3997 0.00303298 9.67879 0.532846C10.9579 1.06266 12.0511 1.95987 12.8203 3.11101C13.5895 4.26216 14 5.61553 14 7C13.9979 8.85588 13.2597 10.6351 11.9474 11.9474C10.6351 13.2597 8.85588 13.9979 7 14ZM7 1C5.81332 1 4.65328 1.3519 3.66658 2.01119C2.67989 2.67047 1.91085 3.60755 1.45673 4.7039C1.0026 5.80026 0.88378 7.00666 1.11529 8.17054C1.3468 9.33443 1.91825 10.4035 2.75736 11.2426C3.59648 12.0818 4.66558 12.6532 5.82946 12.8847C6.99335 13.1162 8.19975 12.9974 9.2961 12.5433C10.3925 12.0892 11.3295 11.3201 11.9888 10.3334C12.6481 9.34673 13 8.18669 13 7C12.9982 5.40926 12.3655 3.88419 11.2406 2.75936C10.1158 1.63454 8.59075 1.00182 7 1Z"/>
</svg>