<svg width="12" height="15" viewBox="0 0 12 15" fill="none" xmlns="http://www.w3.org/2000/svg">
<path d="M12 12L11.293 11.293L10 12.586V8.49999H9V12.586L7.707 11.293L7 12L9.5 14.5L12 12Z"/>
<path d="M6 13.5H1V1.49999H5V4.49999C5.00077 4.76497 5.10637 5.01888 5.29374 5.20625C5.48111 5.39362 5.73502 5.49922 6 5.49999H9V6.99999H10V4.49999C10.0018 4.43427 9.98931 4.36895 9.96341 4.30853C9.93752 4.2481 9.89882 4.19401 9.85 4.14999L6.35 0.649989C6.30599 0.601153 6.2519 0.562451 6.19147 0.536553C6.13104 0.510656 6.06572 0.498181 6 0.499989H1C0.735019 0.500754 0.481109 0.606356 0.293738 0.793727C0.106368 0.981098 0.000765122 1.23501 0 1.49999V13.5C0.000765122 13.765 0.106368 14.0189 0.293738 14.2063C0.481109 14.3936 0.735019 14.4992 1 14.5H6V13.5ZM6 1.69999L8.8 4.49999H6V1.69999Z"/>
</svg>