<svg width="12" height="12" viewBox="0 0 12 12" fill="none" xmlns="http://www.w3.org/2000/svg">
<path d="M7.5 5C7.79667 5 8.08668 4.91203 8.33335 4.7472C8.58003 4.58238 8.77229 4.34811 8.88582 4.07403C8.99935 3.79994 9.02906 3.49834 8.97118 3.20736C8.9133 2.91639 8.77044 2.64912 8.56066 2.43934C8.35088 2.22956 8.08361 2.0867 7.79264 2.02882C7.50166 1.97094 7.20006 2.00065 6.92597 2.11418C6.65189 2.22771 6.41762 2.41997 6.2528 2.66664C6.08797 2.91332 6 3.20333 6 3.5C6 3.89782 6.15804 4.27936 6.43934 4.56066C6.72064 4.84196 7.10218 5 7.5 5ZM7.5 3C7.59889 3 7.69556 3.02932 7.77779 3.08427C7.86001 3.13921 7.9241 3.2173 7.96194 3.30866C7.99978 3.40002 8.00969 3.50055 7.99039 3.59755C7.9711 3.69454 7.92348 3.78363 7.85355 3.85355C7.78363 3.92348 7.69454 3.9711 7.59755 3.99039C7.50056 4.00969 7.40002 3.99978 7.30866 3.96194C7.2173 3.9241 7.13921 3.86001 7.08426 3.77779C7.02932 3.69556 7 3.59889 7 3.5C7 3.36739 7.05268 3.24021 7.14645 3.14645C7.24021 3.05268 7.36739 3 7.5 3Z"/>
<path d="M11 0H1C0.734784 0 0.48043 0.105357 0.292893 0.292893C0.105357 0.48043 0 0.734784 0 1V11C0 11.2652 0.105357 11.5196 0.292893 11.7071C0.48043 11.8946 0.734784 12 1 12H11C11.2652 12 11.5196 11.8946 11.7071 11.7071C11.8946 11.5196 12 11.2652 12 11V1C12 0.734784 11.8946 0.48043 11.7071 0.292893C11.5196 0.105357 11.2652 0 11 0ZM11 11H1V8L3.5 5.5L6.295 8.295C6.48236 8.48125 6.73581 8.58579 7 8.58579C7.26419 8.58579 7.51764 8.48125 7.705 8.295L8.5 7.5L11 10V11ZM11 8.585L9.205 6.79C9.01764 6.60375 8.76419 6.49921 8.5 6.49921C8.23581 6.49921 7.98236 6.60375 7.795 6.79L7 7.585L4.205 4.79C4.01764 4.60375 3.76419 4.49921 3.5 4.49921C3.23581 4.49921 2.98236 4.60375 2.795 4.79L1 6.585V1H11V8.585Z"/>
</svg>