<svg width="13" height="14" viewBox="0 0 13 14" fill="none" xmlns="http://www.w3.org/2000/svg">
<path d="M10 14.0002C9.40666 14.0002 8.82664 13.8242 8.33329 13.4946C7.83994 13.1649 7.45542 12.6964 7.22836 12.1482C7.0013 11.6 6.94189 10.9968 7.05764 10.4149C7.1734 9.83296 7.45912 9.29841 7.87868 8.87885C8.29824 8.45929 8.83279 8.17357 9.41473 8.05782C9.99667 7.94206 10.5999 8.00147 11.148 8.22853C11.6962 8.4556 12.1648 8.84011 12.4944 9.33346C12.8241 9.82681 13 10.4068 13 11.0002C12.9991 11.7955 12.6828 12.5581 12.1203 13.1205C11.5579 13.6829 10.7954 13.9993 10 14.0002ZM10 9.00017C9.60444 9.00017 9.21776 9.11747 8.88886 9.33723C8.55996 9.557 8.30362 9.86935 8.15224 10.2348C8.00087 10.6003 7.96126 11.0024 8.03843 11.3904C8.1156 11.7783 8.30608 12.1347 8.58579 12.4144C8.86549 12.6941 9.22186 12.8846 9.60982 12.9617C9.99778 13.0389 10.3999 12.9993 10.7654 12.8479C11.1308 12.6966 11.4432 12.4402 11.6629 12.1113C11.8827 11.7824 12 11.3957 12 11.0002C11.9994 10.4699 11.7885 9.96156 11.4136 9.58662C11.0386 9.21167 10.5303 9.00077 10 9.00017Z"/>
<path d="M6 10.0002H2V11.0002H6V10.0002Z"/>
<path d="M7 7.00017H2V8.00017H7V7.00017Z"/>
<path d="M6 13.0002H1V1.00017H5V4.00017C5.00077 4.26515 5.10637 4.51906 5.29374 4.70643C5.48111 4.8938 5.73502 4.99941 6 5.00017H9V6.50017H10V4.00017C10.0018 3.93446 9.98931 3.86913 9.96341 3.80871C9.93752 3.74828 9.89882 3.6942 9.85 3.65017L6.35 0.150172C6.30599 0.101336 6.2519 0.0626338 6.19147 0.0367365C6.13104 0.0108391 6.06572 -0.00163613 6 0.000171862H1C0.735019 0.000936984 0.481109 0.10654 0.293738 0.29391C0.106368 0.481281 0.000765122 0.735191 0 1.00017V13.0002C0.000765122 13.2652 0.106368 13.5191 0.293738 13.7064C0.481109 13.8938 0.735019 13.9994 1 14.0002H6V13.0002ZM6 1.20017L8.8 4.00017H6V1.20017Z"/>
</svg>
