<svg width="32" height="32" viewBox="0 0 32 32" fill="none" xmlns="http://www.w3.org/2000/svg">
	<path fill-rule="evenodd" clip-rule="evenodd" d="M14.9213 9.37338C15.1839 9.12379 15.5324 8.98462 15.8947 8.98462C16.257 8.98462 16.6054 9.12379 16.8681 9.37338C16.9686 9.46893 17.0536 9.57788 17.1213 9.69625C16.7947 9.61261 16.4566 9.56202 16.1094 9.5478L16.0892 9.54738H16.0333C15.5608 9.5323 15.1016 9.58773 14.663 9.70513C14.7315 9.58332 14.8183 9.47132 14.9213 9.37338ZM13.5069 10.1817C13.5592 9.60291 13.8202 9.06153 14.243 8.65968C14.6886 8.23616 15.2799 8 15.8947 8C16.5095 8 17.1007 8.23616 17.5464 8.65968C17.9625 9.05514 18.2219 9.58573 18.2798 10.1542C20.1237 11.1601 21.3977 13.301 21.5026 15.7596C21.5104 15.8004 21.5166 15.8415 21.5213 15.8829L21.032 15.9375H21.5243V19.8785L22.8006 20.4565L23.0898 20.9049V21.8895L22.5975 22.3818H18.3375C18.2431 22.8028 18.031 23.1922 17.7212 23.502C17.2909 23.9323 16.7074 24.174 16.099 24.174C15.4905 24.174 14.907 23.9323 14.4767 23.502C14.1669 23.1922 13.9548 22.8028 13.8604 22.3818H9.49231L9 21.8895V20.7966L9.31693 20.3366L10.5676 19.8598L10.4771 15.8798L10.4769 15.8686V15.4895L10.4775 15.4657C10.5898 13.1508 11.7932 11.1565 13.5069 10.1817ZM11.4615 15.5018V15.8634L11.5599 20.1848L11.2431 20.656L9.98462 21.1358V21.3972H22.1052V21.2224L20.8289 20.6445L20.5397 20.196V15.969C20.5375 15.9547 20.5349 15.9405 20.5318 15.9263L20.5203 15.8377C20.4093 12.8578 18.3967 10.633 16.0788 10.532H16.0252L16.0086 10.5317C13.7179 10.4545 11.6096 12.5594 11.4615 15.5018ZM15.173 22.8058C15.0504 22.6832 14.9547 22.5389 14.8895 22.3818H17.3084C17.2433 22.5389 17.1475 22.6832 17.0249 22.8058C16.7794 23.0514 16.4463 23.1893 16.099 23.1893C15.7516 23.1893 15.4186 23.0514 15.173 22.8058Z"/>
</svg>
