<svg width="33" height="36" viewBox="0 0 33 36" fill="none" xmlns="http://www.w3.org/2000/svg">
<path d="M20.5 5.5H5.5V8H20.5V5.5Z"/>
<path d="M20.5 10.5H5.5V13H20.5V10.5Z"/>
<path d="M13 15.5H5.5V18H13V15.5Z"/>
<path d="M10.5 28H5.5V30.5H10.5V28Z"/>
<path d="M32.6338 22.1162L28.8838 18.3662C28.7677 18.2501 28.63 18.158 28.4783 18.0952C28.3267 18.0323 28.1641 18 28 18C27.8359 18 27.6733 18.0323 27.5217 18.0952C27.37 18.158 27.2323 18.2501 27.1162 18.3662L15.5 29.9824V35.5H21.0176L32.6338 23.8838C32.7499 23.7677 32.842 23.63 32.9048 23.4783C32.9677 23.3267 33 23.1641 33 23C33 22.8359 32.9677 22.6733 32.9048 22.5217C32.842 22.37 32.7499 22.2323 32.6338 22.1162ZM19.9824 33H18V31.0176L24.25 24.7676L26.2324 26.75L19.9824 33ZM28 24.9824L26.0176 23L28 21.0176L29.9824 23L28 24.9824Z"/>
<path d="M10.5 35.5H3C2.33717 35.4993 1.70169 35.2357 1.233 34.767C0.76431 34.2983 0.500695 33.6628 0.5 33V3C0.500695 2.33717 0.76431 1.70169 1.233 1.233C1.70169 0.76431 2.33717 0.500695 3 0.5H23C23.6628 0.500695 24.2983 0.76431 24.767 1.233C25.2357 1.70169 25.4993 2.33717 25.5 3V15.5H23V3H3V33H10.5V35.5Z"/>
</svg>