<svg width="13" height="12" viewBox="0 0 13 12" fill="none" xmlns="http://www.w3.org/2000/svg">
<path d="M12.7247 5.55476L1.7247 0.054759C1.63848 0.0116424 1.54164 -0.0056335 1.44584 0.00501157C1.35003 0.0156566 1.25935 0.0537688 1.1847 0.114759C1.11341 0.174505 1.0602 0.252952 1.03105 0.341281C1.0019 0.42961 0.997972 0.524318 1.0197 0.614759L2.4997 5.99976L0.999698 11.3698C0.979311 11.4453 0.976932 11.5245 0.99275 11.6012C1.00857 11.6778 1.04214 11.7496 1.09078 11.8109C1.13941 11.8722 1.20174 11.9212 1.27276 11.954C1.34379 11.9868 1.42151 12.0025 1.4997 11.9998C1.57797 11.9993 1.65504 11.9805 1.7247 11.9448L12.7247 6.44476C12.8066 6.4028 12.8753 6.33905 12.9233 6.26054C12.9713 6.18202 12.9967 6.09178 12.9967 5.99976C12.9967 5.90774 12.9713 5.8175 12.9233 5.73898C12.8753 5.66047 12.8066 5.59672 12.7247 5.55476ZM2.2747 10.5548L3.3797 6.49976H7.9997V5.49976H3.3797L2.2747 1.44476L11.3797 5.99976L2.2747 10.5548Z"/>
</svg>