<svg width="24" height="24" viewBox="0 0 24 24" fill="none" xmlns="http://www.w3.org/2000/svg">
    <path d="M16.5536 14.6667C15.6984 14.6667 14.9444 15.0786 14.4562 15.7066L10.0637 13.1454C10.231 12.797 10.3325 12.4116 10.3325 12C10.3325 11.5885 10.231 11.2031 10.0638 10.8547L14.4564 8.2935C14.9445 8.92147 15.6986 9.33332 16.5538 9.33332C18.0241 9.33332 19.22 8.13722 19.22 6.66666C19.22 5.1961 18.0241 4 16.5538 4C15.0834 4 13.8875 5.1961 13.8875 6.66666C13.8875 6.80076 13.9079 6.92956 13.9272 7.05836L9.1923 9.81912C8.75902 9.51522 8.23444 9.33332 7.66624 9.33332C6.19591 9.33332 5 10.5294 5 12C5 13.4705 6.19591 14.6666 7.66624 14.6666C8.23444 14.6666 8.75897 14.4848 9.19213 14.1807L13.927 16.9415C13.9079 17.0704 13.8875 17.1992 13.8875 17.3333C13.8875 18.8039 15.0834 20 16.5538 20C18.0241 20 19.22 18.8039 19.22 17.3333C19.22 15.8628 18.0241 14.6667 16.5538 14.6667L16.5536 14.6667ZM16.5536 5.33342C17.2888 5.33342 17.8867 5.93147 17.8867 6.66675C17.8867 7.40203 17.2888 8.00008 16.5536 8.00008C15.8184 8.00008 15.2205 7.40203 15.2205 6.66675C15.2205 5.93147 15.8184 5.33342 16.5536 5.33342ZM7.66614 13.3334C6.93097 13.3334 6.33302 12.7353 6.33302 12.0001C6.33302 11.2648 6.93097 10.6667 7.66614 10.6667C8.4013 10.6667 8.99926 11.2648 8.99926 12.0001C8.99926 12.7353 8.4013 13.3334 7.66614 13.3334ZM16.5536 18.6667C15.8184 18.6667 15.2205 18.0687 15.2205 17.3334C15.2205 16.5981 15.8184 16.0001 16.5536 16.0001C17.2888 16.0001 17.8867 16.5981 17.8867 17.3334C17.8867 18.0687 17.2888 18.6667 16.5536 18.6667Z"/>
</svg>
