<svg width="14" height="14" viewBox="0 0 14 14" fill="none" xmlns="http://www.w3.org/2000/svg">
<path d="M7 0C5.61553 0 4.26216 0.410543 3.11101 1.17971C1.95987 1.94888 1.06266 3.04213 0.532846 4.32122C0.00303298 5.6003 -0.13559 7.00776 0.134506 8.36563C0.404603 9.7235 1.07129 10.9708 2.05026 11.9497C3.02922 12.9287 4.2765 13.5954 5.63437 13.8655C6.99224 14.1356 8.3997 13.997 9.67879 13.4672C10.9579 12.9373 12.0511 12.0401 12.8203 10.889C13.5895 9.73785 14 8.38447 14 7C14 5.14348 13.2625 3.36301 11.9497 2.05025C10.637 0.737498 8.85652 0 7 0ZM7 13C5.81332 13 4.65328 12.6481 3.66658 11.9888C2.67989 11.3295 1.91085 10.3925 1.45673 9.2961C1.0026 8.19974 0.88378 6.99334 1.11529 5.82946C1.3468 4.66557 1.91825 3.59647 2.75736 2.75736C3.59648 1.91824 4.66558 1.3468 5.82946 1.11529C6.99335 0.883777 8.19975 1.0026 9.2961 1.45672C10.3925 1.91085 11.3295 2.67988 11.9888 3.66658C12.6481 4.65327 13 5.81331 13 7C13 8.5913 12.3679 10.1174 11.2426 11.2426C10.1174 12.3679 8.5913 13 7 13Z"/>
<path d="M4.75 4.5C4.50278 4.5 4.2611 4.57331 4.05554 4.71066C3.84998 4.84801 3.68976 5.04324 3.59515 5.27165C3.50054 5.50005 3.47579 5.75139 3.52402 5.99386C3.57225 6.23634 3.6913 6.45907 3.86612 6.63388C4.04094 6.8087 4.26366 6.92775 4.50614 6.97598C4.74862 7.02421 4.99995 6.99946 5.22836 6.90485C5.45677 6.81024 5.65199 6.65002 5.78934 6.44446C5.92669 6.2389 6 5.99723 6 5.75C6.00134 5.58548 5.96991 5.42233 5.90757 5.27007C5.84522 5.11782 5.7532 4.97949 5.63686 4.86315C5.52052 4.74681 5.38219 4.65478 5.22993 4.59244C5.07767 4.53009 4.91453 4.49867 4.75 4.5Z"/>
<path d="M9.25 4.5C9.00278 4.5 8.7611 4.57331 8.55554 4.71066C8.34998 4.84801 8.18976 5.04324 8.09515 5.27165C8.00054 5.50005 7.97579 5.75139 8.02402 5.99386C8.07225 6.23634 8.1913 6.45907 8.36612 6.63388C8.54093 6.8087 8.76366 6.92775 9.00614 6.97598C9.24862 7.02421 9.49995 6.99946 9.72836 6.90485C9.95677 6.81024 10.152 6.65002 10.2893 6.44446C10.4267 6.2389 10.5 5.99723 10.5 5.75C10.5013 5.58548 10.4699 5.42233 10.4076 5.27007C10.3452 5.11782 10.2532 4.97949 10.1369 4.86315C10.0205 4.74681 9.88219 4.65478 9.72993 4.59244C9.57767 4.53009 9.41453 4.49867 9.25 4.5Z"/>
<path d="M7 11C7.69019 10.9988 8.36833 10.8191 8.96849 10.4783C9.56866 10.1375 10.0704 9.64714 10.425 9.055L9.57 8.555C9.30317 8.9981 8.92631 9.36469 8.47601 9.61917C8.0257 9.87366 7.51724 10.0074 7 10.0074C6.48276 10.0074 5.97431 9.87366 5.524 9.61917C5.07369 9.36469 4.69683 8.9981 4.43 8.555L3.575 9.055C3.92958 9.64714 4.43135 10.1375 5.03151 10.4783C5.63168 10.8191 6.30982 10.9988 7 11Z"/>
</svg>