<svg width="24" height="24" viewBox="0 0 24 24" fill="none" xmlns="http://www.w3.org/2000/svg">
    <path d="M13.221 18.0371C12.733 18.1523 12.2274 18.2115 11.7218 18.2115C8.14896 18.2115 5.24176 15.3043 5.24176 11.7315C5.24176 8.15872 8.14896 5.25152 11.7218 5.25152C15.2946 5.25152 18.2018 8.15872 18.2018 11.7315C18.2018 12.2563 18.1394 12.7795 18.0146 13.2851C17.9426 13.5747 18.1202 13.8675 18.4098 13.9379C18.6994 14.0131 18.9922 13.8339 19.0626 13.5427C19.2082 12.9523 19.2818 12.3427 19.2818 11.7299C19.2818 7.56032 15.8898 4.16992 11.7218 4.16992C7.55216 4.16992 4.16016 7.56192 4.16016 11.7299C4.16016 15.8995 7.55216 19.2915 11.7202 19.2915C12.3106 19.2915 12.8994 19.2227 13.469 19.0883C13.7586 19.0195 13.9394 18.7299 13.869 18.4387C13.8018 18.1475 13.5106 17.9667 13.221 18.0371Z"/>
    <path d="M8.00255 13.5157C7.76735 13.6997 7.72575 14.0389 7.90975 14.2741C8.83775 15.4613 10.2329 16.1412 11.7385 16.1412C13.2601 16.1412 14.6649 15.4485 15.5929 14.2421C15.7753 14.0053 15.7305 13.6677 15.4937 13.4853C15.2569 13.3029 14.9193 13.3477 14.7369 13.5845C14.0153 14.5237 12.9225 15.0613 11.7385 15.0613C10.5673 15.0613 9.48255 14.5317 8.75935 13.6085C8.57695 13.3733 8.23615 13.3333 8.00255 13.5157Z"/>
    <path d="M10.1192 10.9755V9.89554C10.1192 9.44754 9.7576 9.08594 9.3096 9.08594C8.8616 9.08594 8.5 9.44754 8.5 9.89554V10.9755C8.5 11.4235 8.8616 11.7851 9.3096 11.7851C9.7576 11.7851 10.1192 11.4219 10.1192 10.9755Z"/>
    <path d="M14.9786 10.9755V9.89554C14.9786 9.44754 14.6154 9.08594 14.169 9.08594C13.7226 9.08594 13.3594 9.44754 13.3594 9.89394V10.9739C13.3594 11.422 13.7226 11.7836 14.169 11.7836C14.6154 11.7836 14.9786 11.422 14.9786 10.9755Z"/>
    <path d="M19.2983 16.5913H17.6791V14.9705C17.6791 14.6713 17.4375 14.4297 17.1383 14.4297C16.8391 14.4297 16.5975 14.6713 16.5975 14.9705V16.5913H14.9783C14.6791 16.5913 14.4375 16.8329 14.4375 17.1321C14.4375 17.4313 14.6791 17.6729 14.9783 17.6729H16.5991V19.2937C16.5991 19.5929 16.8407 19.8345 17.1399 19.8345C17.4391 19.8345 17.6807 19.5929 17.6807 19.2937V17.6713H19.3015C19.6007 17.6713 19.8423 17.4297 19.8423 17.1305C19.8423 16.8313 19.5975 16.5913 19.2983 16.5913Z"/>
</svg>
