<svg width="52" height="52" viewBox="0 0 52 52" fill="none" xmlns="http://www.w3.org/2000/svg">
<rect x="1" y="1" width="50" height="50" rx="25" fill="#EDF1F3"/>
<g clip-path="url(#clip0_4207_226981)">
<path fill-rule="evenodd" clip-rule="evenodd" d="M25.9826 14.5154C23.8347 14.5154 22.0934 16.2547 22.0934 18.4003C22.0934 20.5459 23.8347 22.2853 25.9826 22.2853C28.1306 22.2853 29.8718 20.5459 29.8718 18.4003C29.8718 16.2547 28.1306 14.5154 25.9826 14.5154ZM20.7406 18.4003C20.7406 15.5084 23.0876 13.1641 25.9826 13.1641C28.8777 13.1641 31.2246 15.5084 31.2246 18.4003C31.2246 21.2922 28.8777 23.6366 25.9826 23.6366C23.0876 23.6366 20.7406 21.2922 20.7406 18.4003ZM34.4384 32.0845C34.4384 29.0997 32.0154 26.6794 29.0273 26.6794V25.3281C32.7625 25.3281 35.7912 28.3534 35.7912 32.0845V38.1653H34.4384V32.0845ZM22.9396 25.3281C19.2044 25.3281 16.1758 28.3534 16.1758 32.0845V38.1653H17.5286V32.0845C17.5286 29.0997 19.9516 26.6794 22.9396 26.6794V25.3281Z" fill="#BBBBBB"/>
</g>
<g clip-path="url(#clip1_4207_226981)">
<path fill-rule="evenodd" clip-rule="evenodd" d="M25.9475 14.4919C23.7995 14.4919 22.0582 16.2313 22.0582 18.3769C22.0582 20.5225 23.7995 22.2618 25.9475 22.2618C28.0954 22.2618 29.8367 20.5225 29.8367 18.3769C29.8367 16.2313 28.0954 14.4919 25.9475 14.4919ZM20.7055 18.3769C20.7055 15.485 23.0524 13.1406 25.9475 13.1406C28.8425 13.1406 31.1894 15.485 31.1894 18.3769C31.1894 21.2688 28.8425 23.6131 25.9475 23.6131C23.0524 23.6131 20.7055 21.2688 20.7055 18.3769ZM34.4033 32.0611C34.4033 29.0763 31.9803 26.6559 28.9922 26.6559V25.3046C32.7274 25.3046 35.756 28.33 35.756 32.0611V38.1419H34.4033V32.0611ZM22.9045 25.3046C19.1693 25.3046 16.1406 28.33 16.1406 32.0611V38.1419H17.4934V32.0611C17.4934 29.0763 19.9164 26.6559 22.9045 26.6559V25.3046Z" fill="#BBBBBB"/>
</g>
<line x1="34.9377" y1="14.416" x2="15.9377" y2="40.416" stroke="#EDF1F3" stroke-width="4.8"/>
<line x1="34.5652" y1="14.413" x2="15.5652" y2="40.413" stroke="#BBBBBB" stroke-width="1.4"/>
<rect x="1" y="1" width="50" height="50" rx="25" stroke="white" stroke-width="2"/>
<defs>
<clipPath id="clip0_4207_226981">
<rect width="43.965" height="43.917" fill="white" transform="translate(4.03516 4.04297)"/>
</clipPath>
<clipPath id="clip1_4207_226981">
<rect width="43.965" height="43.917" fill="white" transform="translate(4 4.01953)"/>
</clipPath>
</defs>
</svg>
